<?xml version="1.0" standalone="no"?>
<!DOCTYPE svg PUBLIC "-//W3C//DTD SVG 20010904//EN"
 "http://www.w3.org/TR/2001/REC-SVG-20010904/DTD/svg10.dtd">
<svg version="1.0" xmlns="http://www.w3.org/2000/svg"
 width="3840.000000pt" height="2160.000000pt" viewBox="0 0 3840.000000 2160.000000"
 preserveAspectRatio="xMidYMid meet">

<g transform="translate(0.000000,2160.000000) scale(0.100000,-0.100000)"
fill="#000000" stroke="none">
<path d="M37565 20273 c-173 -24 -372 -109 -645 -273 -336 -202 -557 -376
-841 -659 -388 -388 -664 -779 -953 -1351 -167 -330 -235 -485 -536 -1220
-195 -477 -324 -751 -451 -962 -485 -807 -1207 -1386 -1887 -1514 -118 -22
-491 -30 -665 -14 -452 41 -886 164 -1383 393 -763 352 -1444 799 -2099 1376
-66 59 -165 144 -220 191 -55 46 -210 182 -345 300 -872 769 -1544 1293 -2274
1775 -1180 778 -2235 1215 -3099 1284 -59 4 -109 10 -111 12 -1 2 -39 74 -83
159 -142 275 -253 445 -298 456 -31 8 -117 -33 -166 -78 -20 -18 -81 -85 -137
-148 -158 -182 -185 -201 -238 -174 -44 23 -67 47 -189 199 -62 77 -127 151
-146 164 -84 62 -139 11 -272 -256 -108 -214 -213 -371 -304 -452 -32 -29
-112 -78 -195 -122 -166 -86 -225 -130 -274 -203 -31 -47 -38 -71 -60 -197
-39 -230 -69 -277 -264 -429 -70 -54 -142 -118 -159 -142 -93 -127 -75 -310
45 -438 26 -28 122 -100 213 -162 152 -102 181 -127 346 -293 164 -167 187
-186 260 -221 74 -36 86 -38 160 -37 51 1 114 10 175 27 232 64 265 70 365 70
86 1 116 -4 210 -33 238 -72 348 -147 396 -268 20 -50 23 -76 23 -193 0 -117
-3 -143 -23 -193 -43 -108 -117 -167 -211 -167 -27 0 -110 13 -183 29 -264 59
-332 66 -602 66 -274 -1 -385 -14 -645 -77 -533 -128 -835 -399 -892 -798 -9
-64 -9 -99 0 -152 44 -256 278 -501 554 -578 75 -21 232 -29 294 -14 53 12
123 56 148 93 35 51 42 73 72 228 30 161 54 222 101 263 29 26 42 30 91 30
115 0 225 -42 701 -265 354 -165 464 -214 656 -288 493 -192 893 -267 1262
-239 183 14 269 30 410 77 126 42 223 90 334 166 89 61 309 253 309 269 0 16
73 60 100 60 42 0 137 -56 228 -132 48 -40 251 -235 452 -433 381 -376 576
-551 795 -715 577 -433 1231 -711 2035 -864 449 -86 863 -126 1470 -141 333
-9 499 -36 729 -121 220 -81 499 -241 696 -398 115 -92 262 -244 350 -361 196
-263 335 -534 552 -1080 133 -333 190 -463 293 -663 323 -624 780 -1235 1459
-1951 163 -173 257 -251 784 -660 l237 -185 19 -60 c16 -55 18 -91 13 -391 -7
-471 18 -748 93 -1041 153 -597 500 -927 1000 -950 101 -5 114 -4 155 18 30
15 51 35 63 60 17 35 18 55 8 336 -15 422 -2 534 89 748 22 52 43 113 46 137
13 96 -26 195 -156 397 -145 225 -226 406 -265 595 -10 46 -20 166 -25 280
-16 374 -59 450 -383 667 -255 170 -321 238 -457 468 -57 96 -125 220 -151
275 -82 172 -81 158 -89 785 -8 562 -18 749 -61 1115 -87 749 -269 1451 -486
1878 -61 120 -102 178 -221 317 -83 96 -122 159 -122 197 0 33 46 79 143 145
304 205 624 487 832 733 206 245 259 338 460 809 457 1070 699 1553 995 1991
247 363 479 583 950 900 111 74 227 138 495 270 567 281 756 395 911 549 260
261 399 653 338 954 -44 219 -209 395 -411 437 -64 14 -171 17 -238 8z"/>
<path d="M270 5965 l0 -4595 1260 0 1260 0 0 1155 0 1155 1348 2 1347 3 95 32
c280 95 484 316 550 594 20 86 20 95 17 2835 -3 3099 6 2779 -82 2959 -104
211 -288 363 -520 428 l-80 22 -2597 3 -2598 2 0 -4595z m3113 3458 c79 -38
163 -114 200 -181 60 -111 57 15 57 -2107 0 -2143 4 -2001 -63 -2114 -41 -68
-103 -123 -186 -164 l-65 -32 -268 -3 -268 -3 0 2321 0 2321 263 -3 262 -3 68
-32z"/>
<path d="M7010 6292 c0 -4232 0 -4269 20 -4348 66 -262 249 -456 515 -546 l70
-23 2300 -3 c2073 -2 2308 -1 2379 13 263 53 476 242 564 500 l27 80 3 4298 2
4297 -1255 0 -1255 0 0 -3839 c0 -2530 -3 -3857 -10 -3892 -41 -218 -264 -380
-477 -347 -182 28 -332 178 -363 363 -7 40 -10 1352 -9 3885 l2 3825 -1257 3
-1256 2 0 -4268z"/>
<path d="M14457 10549 c-296 -39 -569 -264 -661 -549 -14 -41 -30 -102 -35
-134 -8 -41 -11 -1374 -11 -4278 l0 -4218 1260 0 1260 0 2 3883 3 3882 22 55
c50 122 151 214 276 252 198 60 415 -34 508 -220 l34 -67 3 -3892 2 -3893
1255 0 1255 0 0 3838 c0 2385 4 3859 10 3895 34 210 207 357 421 357 206 0
386 -153 419 -357 6 -36 10 -1510 10 -3895 l0 -3838 1260 0 1260 0 -2 4243 -3
4242 -23 80 c-48 172 -145 326 -271 431 -73 61 -230 142 -331 171 -62 17 -217
18 -3960 19 -2208 1 -3925 -2 -3963 -7z"/>
<path d="M24567 10549 c-351 -46 -640 -332 -697 -689 -6 -44 -10 -1449 -10
-4277 l0 -4213 1255 0 1255 0 2 1153 3 1152 428 3 427 2 0 -1155 0 -1155 1260
0 1260 0 -2 4243 -3 4242 -22 80 c-84 296 -297 511 -595 598 l-73 21 -2210 2
c-1241 1 -2240 -2 -2278 -7z m2313 -1099 c163 -31 303 -163 339 -321 7 -29 11
-777 11 -2182 l0 -2137 -427 2 -428 3 -3 2085 c-2 1356 1 2114 8 2169 19 158
102 280 234 342 98 46 172 57 266 39z"/>
</g>
</svg>
